<svg width="64" height="27" viewBox="0 0 64 27" fill="none" xmlns="http://www.w3.org/2000/svg">
<path d="M63.5923 13.3437C63.5923 12.9746 63.5724 12.6056 63.5524 12.2564C63.5325 11.9073 63.4726 11.5383 63.4327 11.1892H58.4455H53.4583L51.9422 13.5631L50.426 15.937H58.1163C57.6675 17.493 56.7798 18.8296 55.5928 19.7672C54.4059 20.7148 52.9097 21.2833 51.1642 21.2833C48.9897 21.2833 47.0647 20.3856 45.6483 18.9294C44.2319 17.4731 43.3741 15.4882 43.3741 13.2938C43.3741 11.1393 44.2319 9.17435 45.6682 7.73803C47.0846 6.30171 49.0496 5.40401 51.224 5.40401C52.1716 5.40401 53.0493 5.54365 53.8672 5.83291C54.6851 6.10222 55.4232 6.51117 56.0816 6.99992L57.4181 4.86539L58.7547 2.73085C57.7273 2.01269 56.5803 1.43418 55.3135 1.06512C54.0667 0.676118 52.6903 0.486604 51.2539 0.486604C49.3289 0.486604 47.5833 0.83571 46.0473 1.47407C44.5112 2.11244 43.1347 3.03009 41.9877 4.17715C39.2646 6.90017 38.4767 9.67307 37.948 12.1966C37.3895 14.7401 37.0902 17.0542 35.225 18.8994C34.447 19.6774 33.6091 20.2759 32.6616 20.6649C31.714 21.0539 30.7165 21.2634 29.6293 21.2634C27.3951 21.2634 25.3802 20.3357 23.904 18.8895C22.4477 17.4332 21.55 15.4483 21.55 13.2938C21.55 11.1792 22.4477 9.21424 23.904 7.75797C25.3603 6.3017 27.3651 5.38406 29.6293 5.35413C30.5769 5.37408 31.4347 5.51372 32.2327 5.76309C33.0306 6.01245 33.7687 6.40145 34.427 6.8902L35.7836 4.75567L37.1401 2.62114C36.1127 1.90298 34.9657 1.35438 33.7189 0.985326C32.472 0.616271 31.0956 0.426758 29.6593 0.426758C27.4449 0.426758 25.3702 0.955404 23.5649 1.90298C21.7595 2.85055 20.2234 4.17715 19.0564 5.78303C18.6076 4.36666 17.66 3.15976 16.3733 2.3219C15.0766 1.4641 13.4408 0.965377 11.5955 0.965377H5.81036H0.0351562V13.3337V25.6621H12.7526C14.3485 25.6621 15.7848 25.2731 16.9718 24.6148C18.1587 23.9565 19.1063 23.0189 19.7646 21.9117C20.9516 23.2283 22.3879 24.2856 24.0337 25.0237C25.6795 25.7618 27.4948 26.1708 29.4697 26.1708C31.7639 26.1708 33.8784 25.6422 35.7038 24.6746C37.5291 23.7071 39.0652 22.3406 40.2521 20.635C41.3792 22.3207 42.9153 23.6872 44.7606 24.6547C46.5859 25.6222 48.7404 26.1708 51.0345 26.1708C54.5854 26.1708 57.7174 24.7345 59.9716 22.4005C62.2258 20.1063 63.5923 16.8946 63.5923 13.3437ZM5.38146 10.9897V5.59352H11.4758C12.2539 5.59352 12.9321 5.88278 13.4209 6.35158C13.9096 6.82038 14.2188 7.49864 14.2188 8.27665C14.2188 9.05465 13.9096 9.73291 13.4209 10.2017C12.9321 10.6905 12.2339 10.9797 11.4758 10.9797H8.43364H5.38146V10.9897ZM5.38146 21.0938V15.4981H12.6828C13.5007 15.4981 14.2188 15.8074 14.7574 16.2961C15.2861 16.7848 15.6152 17.4831 15.6152 18.281C15.6152 19.079 15.2861 19.7772 14.7574 20.2859C14.2288 20.7946 13.5106 21.1038 12.6828 21.1038H9.03211H5.38146V21.0938Z" fill="#42175B"/>
</svg>
