<svg width="52" height="34" viewBox="0 0 52 34" fill="none" xmlns="http://www.w3.org/2000/svg">
<path d="M20.0578 26.8563C20.4334 30.3747 18.0812 32.8849 15.1954 33.221C13.6932 33.3791 12.3095 32.9047 11.1433 31.9362C9.97715 30.9676 9.38417 29.6828 9.22604 28.1411C8.3761 28.2399 7.52616 28.2992 6.71575 28.4178C5.96464 28.5166 5.21353 28.5759 4.46242 28.6945C3.92874 28.7934 3.77061 28.5957 3.65201 28.1016C3.0195 25.4331 2.30792 22.8043 1.73471 20.0963C1.20102 17.5267 0.884766 14.9571 0.884766 12.4073C0.884766 11.4388 1.04289 10.4307 1.26032 9.46218C1.51728 7.99949 2.42652 6.91236 3.71131 6.22055C5.52979 5.21248 7.44709 4.52067 9.4237 4.02652C12.4084 3.27541 15.4523 2.58359 18.5161 2.10921C21.3426 1.63482 24.2285 1.3581 27.1143 1.10114C29.9013 0.883714 32.6686 0.725586 35.4556 0.725586C38.4403 0.725586 41.3854 0.943012 44.3701 1.10114C45.4374 1.16044 46.2874 1.79295 47.0385 2.60336C48.4814 4.14511 49.2918 6.02289 49.9243 8.05879C50.9324 11.2609 51.3672 14.6211 51.1498 18.0011C51.051 19.7603 50.7743 21.5195 50.0232 23.1798C49.9243 23.4565 49.7464 23.5554 49.4302 23.6147C47.928 23.7728 46.4455 23.9309 44.9433 24.0891C44.7259 24.1483 44.4689 24.1483 44.1922 24.1879C44.7852 26.1052 44.5677 27.9237 43.2829 29.4852C42.3737 30.6514 41.1482 31.3037 39.7053 31.4618C36.602 31.8373 33.3406 29.4259 33.6173 25.3145C29.0909 25.8285 24.604 26.3621 20.0578 26.8563ZM2.11026 12.6445C2.32769 14.6211 2.42652 16.3803 2.74277 18.1395C3.27646 21.0253 4.02757 23.8123 4.66008 26.6784C4.75891 27.2714 5.03564 27.2714 5.51002 27.2121C6.51809 27.054 7.58546 26.9354 8.61329 26.8365C9.04814 26.7772 9.2458 26.6784 9.3051 26.2436C9.77949 24.1681 11.8154 22.3892 13.8908 22.231C16.4011 22.0136 18.2196 23.081 19.4451 25.2157C19.6032 25.4924 19.7218 25.5913 20.0381 25.532C21.1054 25.4331 22.1728 25.3145 23.2402 25.1564C24.9005 24.939 26.5016 24.7809 28.1619 24.5634C29.9211 24.346 31.6803 24.1286 33.4987 23.9705C33.815 23.9112 33.9336 23.8123 34.0917 23.5356C35.8509 19.8394 40.7133 19.3057 43.2829 22.5275C43.5004 22.8043 43.6585 22.8438 43.9747 22.8438C45.5165 22.6857 47.0187 22.4682 48.5605 22.3101C48.8767 22.2508 49.0942 22.152 49.1535 21.8357C49.4302 20.4916 49.786 19.2266 49.8453 17.8232C50.0627 14.4037 49.5685 11.083 48.5012 7.88089C47.9675 6.33914 47.335 4.89622 46.2083 3.65096C45.6153 3.01845 44.9828 2.48476 44.1329 2.36617C41.9388 2.20804 39.7448 1.99061 37.5705 1.99061C34.151 1.99061 30.7315 2.14874 27.3713 2.36617C24.7029 2.5243 22.0344 2.84055 19.4056 3.21611C15.7093 3.74979 12.0328 4.5009 8.51446 5.62757C6.97271 6.10195 5.37166 6.69493 3.96827 7.60417C3.33576 8.03902 2.8416 8.51341 2.68348 9.26452C2.42652 10.4505 2.26839 11.6167 2.11026 12.6445ZM39.0728 30.1572C41.3656 30.1572 43.1841 28.3388 43.1841 26.1052C43.1841 23.8123 41.3063 21.9939 39.0135 21.9939C36.7206 21.9939 34.9614 23.8123 34.9614 26.1052C34.9614 28.3388 36.7799 30.1572 39.0728 30.1572ZM18.773 27.8644C18.773 25.6703 17.3301 23.8123 14.978 23.6344C12.7246 23.4763 10.7085 25.2355 10.5899 27.4295C10.4911 29.7817 12.1909 31.699 14.4838 31.8571C16.7371 32.035 18.773 30.1572 18.773 27.8644Z" fill="#42175B"/>
<path d="M26.0859 7.88073C27.7858 7.88073 29.4462 7.7226 31.1065 7.94002C33.0831 8.21675 33.3005 10.391 32.6483 11.577C32.3715 12.0118 31.8379 12.2688 31.5216 12.585C31.739 12.6839 31.996 12.8025 32.2727 12.9606C33.1819 13.5536 33.6168 14.4035 33.3401 15.629C33.1226 16.7557 32.4308 17.6056 31.3042 17.7637C29.5845 17.9812 27.8253 17.9219 26.1255 17.9812C26.0859 14.4628 26.0859 11.1421 26.0859 7.88073ZM28.2404 16.222C28.8334 16.222 29.4066 16.2813 29.9996 16.222C30.81 16.1232 31.1658 15.629 31.1658 14.7791C31.1658 13.9291 30.7903 13.2769 30.0391 13.178C29.4462 13.1187 28.8137 13.178 28.2207 13.178C28.2404 14.1861 28.2404 15.1546 28.2404 16.222ZM28.2404 9.42248C28.2404 10.391 28.2404 11.241 28.2404 12.2095C28.7148 12.2095 29.1497 12.2095 29.6241 12.2095C30.3752 12.2095 30.7507 11.7351 30.7903 11.0433C30.8496 10.1341 30.4147 9.54107 29.7229 9.50154C29.1892 9.38294 28.7741 9.42248 28.2404 9.42248Z" fill="#42175B"/>
<path d="M24.327 17.8229C23.6352 17.7636 22.8248 18.1985 22.4492 17.1904C22.1725 17.2892 22.0144 17.4078 21.8167 17.5067C20.2156 18.3566 18.496 17.8229 17.8042 16.1626C17.2112 14.8185 17.2112 13.4941 17.903 12.2094C18.753 10.7071 20.3145 10.3909 21.9155 10.7071C22.0737 10.7664 22.1923 10.806 22.4492 10.8653C22.4492 10.2723 22.4492 9.79789 22.4492 9.32351C22.4492 8.84912 22.4492 8.35497 22.4492 7.82129C23.0817 7.82129 23.734 7.82129 24.327 7.82129C24.327 11.142 24.327 14.4627 24.327 17.8229ZM22.4097 14.1267C22.4097 13.6918 22.4097 13.2767 22.4097 12.9012C22.4097 12.743 22.3504 12.5849 22.3108 12.4663C21.5597 11.8338 19.8599 11.8338 19.5831 13.0988C19.4843 13.5732 19.425 14.1069 19.4843 14.6406C19.5831 16.0242 20.7691 16.6765 21.9946 16.0242C22.3108 15.8661 22.5283 15.6486 22.469 15.2731C22.3504 14.8778 22.4097 14.5022 22.4097 14.1267Z" fill="#42175B"/>
<path d="M16.6981 14.6602C14.8797 14.6602 13.1798 14.6602 11.5194 14.6602C11.5787 15.5695 12.2112 16.3206 13.1798 16.2613C14.0297 16.202 14.8994 16.0439 15.7889 15.8857C15.7889 16.2613 15.7889 16.6961 15.7889 17.1705C15.7889 17.2694 15.6901 17.4473 15.6308 17.4868C14.089 18.2379 11.2032 18.3367 9.95792 16.2613C9.20681 14.9172 9.32541 12.9406 10.2346 11.7744C11.2032 10.5489 12.8042 10.0548 14.346 10.5489C15.5122 10.9245 16.1645 11.8337 16.4807 12.9999C16.5795 13.5533 16.5795 14.0277 16.6981 14.6602ZM14.7215 13.7115C14.8204 12.9011 14.0297 12.0511 13.1798 12.0511C12.1717 11.9918 11.4601 12.6441 11.4601 13.7115C12.5275 13.7115 13.6542 13.7115 14.7215 13.7115Z" fill="#42175B"/>
<path d="M39.3484 17.8819C39.2891 17.6052 39.2891 17.4076 39.2891 17.1308C39.0124 17.289 38.7554 17.4076 38.538 17.5064C37.9055 17.8226 37.1939 18.0994 36.4626 17.9412C35.4545 17.7238 34.8022 17.1308 34.7627 16.0635C34.7034 14.3438 34.7627 12.6439 34.7627 10.8848C35.3557 10.8848 35.9289 10.8848 36.6405 10.8848C36.6405 11.0429 36.6405 11.201 36.6405 11.4184C36.6405 12.5846 36.6405 13.7113 36.6405 14.8973C36.6405 15.9053 37.2334 16.3995 38.2415 16.1821C39.0914 16.0239 39.3682 15.6484 39.3682 14.7391C39.3682 13.4544 39.3682 12.2289 39.3682 10.8848C40.0007 10.8848 40.5937 10.8848 41.2459 10.8848C41.2459 11.0429 41.3052 11.2603 41.3052 11.4184C41.3052 13.3951 41.3052 15.3717 41.3052 17.289C41.3052 17.7238 41.2064 17.8819 40.7123 17.8819C40.1983 17.8226 39.7635 17.8819 39.3484 17.8819Z" fill="#42175B"/>
<path d="M42.6113 17.5467C42.6113 16.8549 42.6113 16.3212 42.6113 15.8863C43.4613 16.0445 44.331 16.2026 45.1809 16.3212C45.3983 16.3805 45.6553 16.3212 45.8134 16.2224C46.0309 16.0642 46.3471 15.7875 46.4064 15.5898C46.4064 15.3724 46.1297 14.9969 45.8727 14.9573C45.339 14.7992 44.7461 14.7399 44.2124 14.6411C42.7102 14.3248 42.1765 12.5063 43.2043 11.3797C43.7973 10.6879 44.5484 10.4111 45.4576 10.4111C46.0902 10.4111 46.7424 10.51 47.3749 10.6286C47.4738 10.6286 47.6319 10.846 47.6319 10.9448C47.6912 11.4192 47.6319 11.8541 47.6319 12.3284C46.9401 12.2296 46.2483 12.111 45.5565 12.0122C45.339 12.0122 45.1216 12.0122 44.9635 12.111C44.7461 12.2098 44.4891 12.4866 44.5286 12.6447C44.5286 12.8028 44.8054 13.1191 45.003 13.1784C45.4379 13.3365 45.9123 13.3365 46.3866 13.4551C47.2959 13.6132 47.9284 14.0481 48.2051 14.9573C48.4818 15.8666 48.047 16.8746 47.2959 17.4676C46.5448 18.0606 45.6355 18.1001 44.7263 18.0013C43.995 17.8827 43.3031 17.6653 42.6113 17.5467Z" fill="#42175B"/>
<path d="M4.24484 10.8263C4.87736 10.767 5.52964 10.7275 6.16215 10.6682C6.16215 10.8856 6.22145 11.0437 6.22145 11.3007C6.49817 11.1426 6.69583 11.0833 6.85396 10.9251C7.44694 10.5496 8.02016 10.4508 8.73174 10.5496C8.88987 10.5496 9.04799 10.767 9.04799 10.9251C9.10729 11.5181 9.04799 12.0913 9.04799 12.5855C8.41548 12.5262 7.7632 12.4274 7.13069 12.5262C6.32028 12.625 6.12262 12.961 6.12262 13.7517C6.12262 15.0958 6.12262 16.3608 6.12262 17.8037C5.52964 17.8037 4.99595 17.8037 4.46227 17.8037C4.36344 17.8037 4.18555 17.4875 4.18555 17.3689C4.18555 15.4911 4.18555 13.6726 4.18555 11.8146C4.24485 11.5181 4.24484 11.2019 4.24484 10.8263Z" fill="#42175B"/>
</svg>
