<svg width="51" height="27" viewBox="0 0 51 27" fill="none" xmlns="http://www.w3.org/2000/svg">
<path d="M48.5587 6.4415C47.8636 6.19971 47.2893 5.98814 47.2893 5.53478C47.2893 5.02097 47.652 4.77918 48.4076 4.77918C49.0121 4.77918 49.7677 4.99075 50.4024 5.35343H50.4326L50.7953 4.23515C50.1606 3.81201 49.0725 3.50977 48.0449 3.50977C46.2919 3.50977 45.2341 4.32582 45.2341 5.71612C45.2341 7.16688 46.443 7.59001 47.4404 8.01315C48.1658 8.31539 48.8912 8.67808 48.8912 9.22211C48.8912 9.79637 48.4681 10.0079 47.652 10.0079C46.9266 10.0079 46.1106 9.76614 45.4759 9.37323H45.4456L45.0527 10.5217C45.6874 10.9751 46.8662 11.3076 47.8938 11.3076C48.861 11.3076 49.6166 11.096 50.1304 10.6426C50.6442 10.2195 50.886 9.5848 50.886 8.79897C50.886 7.31799 49.5863 6.83441 48.5587 6.4415Z" fill="#42175B"/>
<path d="M44.0274 8.67798V6.80409C44.0274 5.6858 43.7554 4.86975 43.2113 4.32572C42.6068 3.72124 41.9419 3.44922 40.9747 3.44922C39.9773 3.44922 38.7986 3.81191 38.0128 4.35594L38.3452 5.47423H38.3755C39.0102 5.08132 39.7356 4.83953 40.4005 4.83953C40.9747 4.83953 41.4583 4.99064 41.7001 5.26266C41.9721 5.5649 42.093 5.83692 42.093 6.59252C41.6397 6.38095 41.0654 6.41118 40.5214 6.41118C40.4307 6.41118 40.3703 6.41118 40.2796 6.41118C38.5568 6.41118 37.4688 7.34812 37.4688 8.88955C37.4688 9.61492 37.7105 10.2194 38.1639 10.6425C38.6173 11.0657 39.2822 11.3075 40.068 11.3075C40.7632 11.3075 41.6094 11.0355 42.2744 10.5821C42.3046 10.7937 42.365 10.9448 42.4255 11.1261H44.1483V11.0959C44.0576 10.3101 44.0274 9.79627 44.0274 8.67798ZM42.093 7.71081V9.49403C41.5792 9.79627 41.0654 10.0985 40.7027 10.0985C39.9471 10.0985 39.524 9.67537 39.524 8.88955C39.524 8.04327 39.9773 7.55969 40.7934 7.55969C40.8538 7.55969 40.9143 7.55969 40.9445 7.55969C41.005 7.55969 41.0654 7.55969 41.1561 7.55969C41.3979 7.55969 41.7606 7.55969 42.093 7.71081Z" fill="#42175B"/>
<path d="M0.353516 1.99841H3.28525V11.1261H5.4916V1.99841H8.42334V0.426758H0.353516V1.99841Z" fill="#42175B"/>
<path d="M11.3853 11.1261V5.41372C11.8084 5.11148 12.3525 4.93014 12.8058 4.93014C13.6219 4.93014 14.0148 5.47417 14.0148 6.62269V11.1261H16.07V6.65291C16.07 5.59507 15.8282 4.80924 15.3144 4.26521C14.8309 3.7514 14.317 3.53984 13.5614 3.53984C12.8058 3.53984 12.02 3.7514 11.3853 4.14432V0.426758H9.33008V11.0958L11.3853 11.1261Z" fill="#42175B"/>
<path d="M34.4473 11.1262H36.5026V6.65307C36.5026 5.50456 36.291 4.74895 35.8074 4.23515C35.3541 3.75156 34.81 3.50977 34.0847 3.50977C33.2384 3.50977 32.3317 3.84223 31.5458 4.44671C31.5156 4.41649 31.4854 4.35604 31.4552 4.32582C31.4249 4.29559 31.4249 4.29559 31.3947 4.26537C30.9414 3.78178 30.3671 3.53999 29.6719 3.53999C28.8861 3.53999 28.0701 3.81201 27.3749 4.32582C27.3145 4.14447 27.2842 4.0538 27.254 3.96313C27.2238 3.90268 27.2238 3.81201 27.1936 3.75156H25.5312V11.096H27.5865V7.04598C27.5865 6.71352 27.5865 6.38105 27.5865 6.07881C27.5865 5.83702 27.5865 5.59523 27.5865 5.38366C28.1003 4.99075 28.6141 4.90007 28.9466 4.90007C29.2488 4.90007 29.4906 4.99074 29.6719 5.17209C29.9137 5.47433 30.0346 5.86724 30.0346 6.59262V11.096H32.0899V6.62284C32.0899 6.38105 32.0899 6.16948 32.0899 5.92769C32.0899 5.71612 32.0899 5.50455 32.0899 5.32321C32.6037 4.9303 33.057 4.86985 33.3895 4.86985C33.6917 4.86985 33.9335 4.96052 34.1149 5.14187C34.3567 5.44411 34.4776 5.83702 34.4776 6.5624L34.4473 11.1262Z" fill="#42175B"/>
<path d="M20.7556 11.3076C21.9343 11.3076 22.9015 10.9449 23.5664 10.28C24.2314 9.61502 24.5638 8.64786 24.5638 7.49934C24.5638 6.32061 24.2314 5.35344 23.5664 4.62806C22.9015 3.90268 21.9343 3.50977 20.7556 3.50977C18.4283 3.50977 17.0078 4.96052 17.0078 7.40867C17.038 9.82659 18.4283 11.3076 20.7556 11.3076ZM20.7556 4.71873C21.8134 4.71873 22.3575 5.62545 22.3575 7.40867C22.3575 9.19189 21.8134 10.0986 20.7556 10.0986C19.6978 10.0986 19.1537 9.19189 19.1537 7.40867C19.1537 5.62545 19.6978 4.71873 20.7556 4.71873Z" fill="#42175B"/>
<path d="M16.5557 24.7853C15.7397 25.1178 14.6818 25.2689 14.0773 25.2689C13.2311 25.2689 12.6266 25.0573 12.1732 24.6644C11.4176 23.9693 11.0852 22.9114 11.0852 21.3398C11.0852 19.4659 11.6292 18.4987 12.1128 18.0151C12.5359 17.592 13.1404 17.3804 13.896 17.3804C14.5912 17.3804 15.649 17.5618 16.4953 17.9849H16.5255L16.9184 16.7155C15.9512 16.1413 14.6516 15.9297 13.7449 15.9297C12.2941 15.9297 11.1456 16.3528 10.2993 17.2293C9.33217 18.2267 8.81836 19.6472 8.81836 21.3398C8.81836 23.2137 9.3624 24.6947 10.39 25.6014C11.2061 26.357 12.3546 26.7197 13.7751 26.7197C14.6818 26.7197 15.9512 26.5383 16.9184 26.085L16.5557 24.7853Z" fill="#42175B"/>
<path d="M21.0876 18.9521C18.7604 18.9521 17.3398 20.4029 17.3398 22.851C17.3398 25.2992 18.7301 26.75 21.0876 26.75C23.4149 26.75 24.8354 25.2992 24.8354 22.851C24.8354 20.4029 23.4451 18.9521 21.0876 18.9521ZM21.0876 25.5108C20.0298 25.5108 19.4857 24.604 19.4857 22.8208C19.4857 21.0376 20.0298 20.1309 21.0876 20.1309C22.1455 20.1309 22.6895 21.0376 22.6895 22.8208C22.7197 24.604 22.1757 25.5108 21.0876 25.5108Z" fill="#42175B"/>
<path d="M40.8871 19.1343H38.7412L35.9908 21.8544V15.8398H33.9355V26.5392H35.9908V23.3354L38.5598 26.5089V26.5392H40.9475L37.5624 22.3682L40.8871 19.1343Z" fill="#42175B"/>
<path d="M29.2497 18.9521C26.9225 18.9521 25.502 20.4029 25.502 22.851C25.502 25.2992 26.8923 26.75 29.2497 26.75C31.577 26.75 32.9673 25.2992 32.9673 22.851C32.9673 20.4029 31.577 18.9521 29.2497 18.9521ZM29.2497 25.5108C28.1919 25.5108 27.6479 24.604 27.6479 22.8208C27.6479 21.0376 28.1919 20.1309 29.2497 20.1309C30.3076 20.1309 30.8516 21.0376 30.8516 22.8208C30.8516 24.604 30.3076 25.5108 29.2497 25.5108Z" fill="#42175B"/>
</svg>
