<svg width="116" height="22" viewBox="0 0 116 22" fill="none" xmlns="http://www.w3.org/2000/svg">
<path d="M12.4171 0.637186C12.4171 0.734666 12.4902 0.79559 12.5512 0.8687C14.1961 3.33007 15.8533 5.79143 17.4983 8.24062C17.6079 8.41121 17.5958 8.48432 17.4374 8.60617C13.6113 11.5427 9.78518 14.4793 5.95909 17.4159C5.84943 17.5012 5.71539 17.5499 5.56917 17.5499C4.57 17.5499 3.57084 17.5499 2.57167 17.5499C2.55948 17.4403 2.63259 17.3794 2.66914 17.3062C5.86161 11.823 9.05408 6.32758 12.2587 0.844332C12.3075 0.771222 12.3318 0.69811 12.3684 0.625H12.4171V0.637186Z" fill="#42175B"/>
<path d="M8.28711 17.6479L24.4931 5.18262C24.4566 5.62128 24.42 6.02338 24.3957 6.42548C24.2982 7.58306 24.2007 8.74063 24.091 9.8982C23.9814 11.202 23.8595 12.5058 23.7499 13.8096C23.6524 14.9306 23.5549 16.0638 23.4696 17.1848C23.4331 17.6357 23.4452 17.6357 22.9944 17.6357H8.28711V17.6479Z" fill="#42175B"/>
<path d="M12.5051 19.0488C16.0509 19.0488 19.5967 19.0488 23.1426 19.0488C23.3375 19.0488 23.4106 19.0976 23.4106 19.3047C23.3985 19.9993 23.3985 20.706 23.4106 21.4127C23.4106 21.6077 23.3497 21.6564 23.1548 21.6564C19.414 21.6564 15.6732 21.6442 11.9324 21.6564C8.55715 21.6564 5.19409 21.6564 1.81885 21.6564C1.61171 21.6564 1.55078 21.6077 1.55078 21.4005C1.56297 20.706 1.56297 19.9993 1.55078 19.2925C1.55078 19.0854 1.61171 19.0488 1.80667 19.0488C5.37687 19.0488 8.94707 19.0488 12.5051 19.0488Z" fill="#42175B"/>
<path d="M0.611328 4.90234C0.696623 4.96327 0.757548 4.98764 0.794103 5.02419C2.46345 6.20614 4.13279 7.38808 5.81432 8.57003C5.92398 8.64314 5.98491 8.70406 5.89961 8.85028C4.48615 11.2507 3.09707 13.6633 1.69579 16.076C1.67142 16.1125 1.64705 16.1491 1.59831 16.2344C1.26932 12.4327 0.940323 8.69187 0.611328 4.90234Z" fill="#42175B"/>
<path d="M29.7353 5.50003C31.0513 5.50003 32.3673 5.53659 33.6711 5.48785C34.195 5.47566 34.3656 5.67062 34.4753 6.13365C35.1211 8.87527 35.7912 11.6047 36.4858 14.4926C36.5955 14.1879 36.6564 14.0295 36.7051 13.8711C37.3997 11.2757 38.1064 8.68032 38.7888 6.08491C38.9106 5.63407 39.0934 5.46348 39.5686 5.48785C40.4337 5.53659 41.2867 5.5244 42.1518 5.48785C42.5417 5.47566 42.7001 5.59751 42.8098 5.98743C43.5165 8.66813 44.2476 11.3488 44.9787 14.0173C45.0031 14.0905 45.0275 14.1636 45.0884 14.3463C45.393 13.7249 45.4661 13.14 45.6002 12.5795C46.1363 10.4106 46.6724 8.24165 47.172 6.06054C47.2695 5.64625 47.4035 5.45129 47.8909 5.47566C49.0485 5.5244 50.2183 5.50003 51.3758 5.48785C51.8145 5.47566 51.8754 5.59751 51.7414 5.99962C50.3036 10.569 48.8779 15.1505 47.4645 19.7321C47.3548 20.0855 47.1964 20.2073 46.843 20.1951C45.8317 20.1708 44.8203 20.1708 43.809 20.1951C43.3947 20.2073 43.2606 20.0367 43.1632 19.6712C42.3833 16.7224 41.5913 13.7858 40.7993 10.8371C40.5678 10.9345 40.6043 11.1295 40.5556 11.2879C39.8488 14.0295 39.1299 16.7833 38.4476 19.5371C38.3257 20.0124 38.1308 20.1464 37.6556 20.1342C36.7051 20.0977 35.7547 20.0977 34.8165 20.1342C34.3169 20.1586 34.1097 20.0002 33.9757 19.5128C32.6597 15.1262 31.3194 10.7518 29.979 6.37735C29.9181 6.15802 29.9181 5.91432 29.7109 5.74373L29.7353 5.50003Z" fill="#42175B"/>
<path d="M115.032 20.0983C113.351 20.1105 111.669 20.1105 110 20.1349C109.671 20.1349 109.561 19.9156 109.427 19.7084L106.868 15.7605C106.637 15.7605 106.6 15.9676 106.515 16.0895C105.723 17.2958 104.931 18.5021 104.163 19.7206C103.98 20.0009 103.798 20.1471 103.444 20.1349C102.006 20.1105 100.556 20.1349 99.1186 20.1227C98.9602 20.1227 98.753 20.2202 98.6556 20.013C98.5581 19.8059 98.753 19.6962 98.8383 19.5622C100.459 17.3323 102.067 15.1025 103.712 12.897C104.054 12.4462 104.017 12.1659 103.7 11.7394C102.311 9.87514 100.959 7.98646 99.606 6.09779C99.4841 5.9272 99.3014 5.79317 99.2892 5.47636C100.946 5.47636 102.591 5.47636 104.236 5.47636C104.541 5.47636 104.602 5.74442 104.711 5.93938C105.394 7.03603 106.052 8.13268 106.783 9.31463C107.49 8.16924 108.184 7.10914 108.793 6.0125C109.049 5.56165 109.33 5.4398 109.817 5.45199C111.304 5.47636 112.79 5.46417 114.301 5.46417C114.313 5.75661 114.106 5.90283 113.972 6.07342C112.546 8.02302 111.121 9.96043 109.683 11.8978C109.512 12.1415 109.366 12.3243 109.598 12.6289C111.365 14.9928 113.107 17.3567 114.874 19.7328C114.91 19.7815 114.971 19.7937 115.032 19.8303V20.0983Z" fill="#42175B"/>
<path d="M63.9362 6.99997C63.9849 5.47685 63.9849 5.47685 65.3253 5.47685C66.1417 5.47685 66.9581 5.48903 67.7745 5.47685C68.1156 5.46466 68.274 5.52558 68.274 5.92769C68.2619 10.5092 68.2619 15.0908 68.274 19.6845C68.274 20.0745 68.1278 20.1476 67.7866 20.1476C66.7509 20.1354 65.7152 20.111 64.6917 20.1598C64.0946 20.1841 63.8631 20.0014 63.9606 19.4165C63.9727 19.2093 63.9727 19.0022 63.9606 18.795C63.6194 19.1606 63.3879 19.4652 63.1076 19.7089C61.8282 20.8299 60.2807 20.9396 58.721 20.7081C54.9071 20.1476 52.2264 17.0282 52.1168 13.1168C52.0071 9.20545 54.505 5.98862 58.3067 5.17222C59.2815 4.95289 60.2807 4.9407 61.2555 5.13566C62.34 5.35499 63.2051 5.93988 63.9362 6.99997ZM60.1954 16.5043C62.2547 16.5164 63.9606 14.8349 63.9484 12.8C63.9362 10.8139 62.279 9.13234 60.2929 9.12016C58.258 9.07142 56.5521 10.6798 56.5033 12.7147C56.4546 14.7496 58.063 16.4555 60.0979 16.5043C60.1345 16.5043 60.1588 16.5043 60.1954 16.5043Z" fill="#42175B"/>
<path d="M76.5503 8.77823C74.5885 8.77823 72.7608 8.76604 70.933 8.79041C70.47 8.79041 70.275 8.70512 70.3116 8.19335C70.3603 7.43788 70.3359 6.68241 70.3116 5.93912C70.2994 5.61013 70.4091 5.48828 70.7502 5.48828C74.0889 5.50047 77.4276 5.50047 80.7663 5.48828C81.1075 5.48828 81.2171 5.58576 81.205 5.92694C81.1806 6.82863 81.1806 7.73032 81.205 8.64419C81.2171 8.961 81.0587 9.16814 80.9003 9.39966L76.0751 16.1014C75.9289 16.3085 75.7826 16.5157 75.6364 16.7228C75.7705 16.9422 75.9654 16.8569 76.1238 16.8569C77.6591 16.8691 79.1822 16.8812 80.7054 16.8569C81.1075 16.8569 81.2293 16.9665 81.2171 17.3686C81.1928 18.1241 81.1806 18.8796 81.2171 19.6229C81.2415 20.0737 81.0587 20.159 80.6566 20.1468C77.3789 20.1346 74.1133 20.1346 70.8355 20.1468C70.4578 20.1468 70.2628 20.0493 70.3238 19.6472C70.3359 19.5985 70.3359 19.5619 70.3238 19.5132C70.0801 17.8804 70.6162 16.5644 71.6763 15.285C73.236 13.4207 74.6129 11.4102 76.0629 9.46058C76.1969 9.26562 76.3431 9.07067 76.5503 8.77823Z" fill="#42175B"/>
<path d="M94.8651 6.92643C95.6937 5.79322 96.6928 5.19616 97.9479 5.02557C98.3865 4.96464 98.6181 5.0012 98.5937 5.54952C98.5571 6.67054 98.5693 7.79156 98.5937 8.9004C98.5937 9.25376 98.5084 9.42435 98.1307 9.39998C97.9601 9.39998 97.7895 9.42435 97.6189 9.47309C95.913 9.71679 95.1697 10.5454 95.1697 12.2756C95.1575 14.6395 95.1453 17.0034 95.1819 19.3795C95.1941 19.94 95.0844 20.1715 94.4508 20.1471C93.3785 20.0862 92.2941 20.1228 91.2218 20.135C90.8562 20.135 90.7344 20.0253 90.7344 19.6597C90.7466 15.0782 90.7466 10.4966 90.7344 5.91507C90.7344 5.57389 90.8562 5.47641 91.1852 5.47641C92.2209 5.4886 93.2567 5.51297 94.2802 5.46423C94.792 5.43986 94.926 5.62263 94.8651 6.08566C94.8529 6.36592 94.8529 6.64617 94.8651 6.92643Z" fill="#42175B"/>
<path d="M87.6126 12.8604C87.6126 15.0781 87.6004 17.2958 87.6248 19.5134C87.6248 19.9765 87.5395 20.1592 87.0277 20.1471C85.9067 20.1105 84.7857 20.1227 83.6647 20.1471C83.2991 20.1471 83.1895 20.0252 83.1895 19.6597C83.2016 15.0903 83.2016 10.5331 83.1895 5.96374C83.1895 5.53726 83.3479 5.47634 83.7256 5.47634C84.8466 5.50071 85.9676 5.50071 87.0886 5.47634C87.5151 5.46415 87.637 5.59819 87.637 6.02466C87.6126 8.30325 87.6126 10.5818 87.6126 12.8604Z" fill="#42175B"/>
<path d="M87.271 2.25921C87.2832 3.27057 86.479 4.09915 85.4798 4.11133C85.4433 4.11133 85.4189 4.11133 85.3824 4.11133C84.3466 4.11133 83.5059 3.27057 83.5059 2.22266C83.5059 2.22266 83.5059 2.22266 83.5059 2.21047C83.5302 1.17475 84.371 0.346169 85.4189 0.333984C86.4546 0.358354 87.2832 1.21131 87.271 2.25921C87.271 2.24703 87.271 2.24703 87.271 2.25921Z" fill="#42175B"/>
</svg>
