<svg width="90" height="22" viewBox="0 0 90 22" fill="none" xmlns="http://www.w3.org/2000/svg">
<path d="M43.9811 11.109L33.2061 0.333984V21.8042L43.9811 11.109ZM22.5109 11.109L33.2859 0.333984H11.7359L22.5109 11.109ZM0.960938 11.109L11.7359 21.884V0.333984L0.960938 11.109ZM22.5109 11.109L11.7359 21.884H33.2061L22.5109 11.109Z" fill="#42175B"/>
<path d="M55.394 11.9069H50.5253V16.6957H48.1309V5.52167H50.5253V10.1509H55.394V5.52167H57.7885V16.6957H55.394V11.9069ZM63.6948 16.9352C61.3003 16.9352 59.3049 15.9774 59.2251 13.2637H61.6196C61.6196 14.4609 62.3379 15.1793 63.6948 15.1793C64.6525 15.1793 65.7699 14.7004 65.7699 13.583C65.7699 12.705 65.0516 12.4656 63.7746 12.0665L62.9764 11.827C61.2205 11.3482 59.4646 10.6298 59.4646 8.63445C59.4646 6.16019 61.7792 5.28223 63.9342 5.28223C66.0892 5.28223 68.0048 6.00056 68.0048 8.55463H65.6103C65.5305 7.51704 64.892 6.95834 63.7746 6.95834C62.8966 6.95834 62.0186 7.43723 62.0186 8.47482C62.0186 9.27297 62.737 9.51241 64.3333 10.0711L65.2112 10.3106C67.1268 10.9491 68.324 11.5876 68.324 13.4233C68.324 15.9774 65.8498 16.9352 63.6948 16.9352ZM69.6809 5.52167H73.5918C74.3101 5.52167 75.1083 5.52167 75.8266 5.6813C77.1835 6.00056 78.2211 6.87852 78.2211 8.395C78.2211 9.83167 77.3431 10.55 75.9862 10.9491C77.5027 11.2683 78.6201 11.9867 78.6201 13.6628C78.6201 16.2169 76.0661 16.7756 74.1505 16.7756H69.7607L69.6809 5.52167ZM73.5918 10.2307C74.6294 10.2307 75.7468 9.9913 75.7468 8.71426C75.7468 7.51704 74.7092 7.19778 73.7514 7.19778H72.0753V10.1509L73.5918 10.2307ZM73.8312 15.0196C74.9487 15.0196 76.0661 14.7802 76.0661 13.4233C76.0661 12.0665 75.1083 11.827 73.9909 11.827H72.0753V15.0995L73.8312 15.0196ZM84.9255 16.9352C81.3338 16.9352 79.7375 14.6206 79.7375 11.1885C79.7375 7.75649 81.4935 5.28223 85.0851 5.28223C87.32 5.28223 89.4749 6.31982 89.5548 8.79408H87.0007C86.8411 7.67667 86.1227 7.11797 85.0851 7.11797C82.8503 7.11797 82.2118 9.51241 82.2118 11.2683C82.2118 13.0243 82.8503 15.0995 85.0053 15.0995C86.1227 15.0995 86.9209 14.4609 87.0805 13.3435H89.6346C89.2355 15.9774 87.2401 16.9352 84.9255 16.9352Z" fill="#42175B"/>
</svg>
