<svg width="83" height="27" viewBox="0 0 83 27" fill="none" xmlns="http://www.w3.org/2000/svg">
<path d="M27.9785 23.1307H32.5185L36.0779 9.91016H31.5379L27.9785 23.1307Z" fill="#42175B"/>
<path d="M51.2598 23.1307H55.7998L59.3592 9.91016H54.8191L51.2598 23.1307Z" fill="#42175B"/>
<path d="M74.541 23.1307H79.081L82.6404 9.91016H78.1004L74.541 23.1307Z" fill="#42175B"/>
<path d="M47.045 14.4139H51.585C52.2024 11.4356 50.2775 9.91016 45.8101 9.91016C40.6526 9.91016 37.1659 12.4162 36.0037 16.811C34.9504 20.7699 37.0569 23.167 41.8875 23.167C46.7907 23.167 49.66 21.6416 50.8949 18.2275H46.3549C45.7375 19.7166 44.5389 20.5156 42.9045 20.5156C40.7253 20.5156 39.8536 19.1355 40.5074 16.5931C41.1974 13.978 42.8682 12.5252 45.0837 12.5252C46.5002 12.5615 47.1539 13.179 47.045 14.4139Z" fill="#42175B"/>
<path d="M70.3282 14.4139H74.8682C75.4856 11.4356 73.5607 9.91016 69.0933 9.91016C63.9358 9.91016 60.4491 12.4162 59.2869 16.811C58.2336 20.7699 60.3401 23.167 65.1707 23.167C70.0739 23.167 72.9432 21.6416 74.1781 18.2275H69.6381C69.0207 19.7166 67.8221 20.5156 66.1877 20.5156C64.0085 20.5156 63.1368 19.1355 63.7906 16.5931C64.4806 13.978 66.1514 12.5252 68.3669 12.5252C69.7834 12.5615 70.4371 13.179 70.3282 14.4139Z" fill="#42175B"/>
<path d="M7.56652 6.16929C13.632 0.176464 20.9687 -1.3853 23.9106 2.71887C26.8525 6.82305 24.2738 15.0677 18.2083 21.0969C12.1429 27.0897 4.80619 28.6515 1.86426 24.5473C-1.07767 20.4431 1.46474 12.1984 7.56652 6.16929Z" fill="#42175B"/>
<path d="M11.561 2.97335C10.9073 3.48183 10.2172 4.02664 9.56341 4.6804C4.22435 9.9105 2.04514 17.1019 4.66019 20.6976C7.34788 24.2933 13.9218 22.9858 19.3335 17.683C22.2391 14.85 24.2004 11.5449 25.0358 8.49402C25.29 6.24217 24.9632 4.24456 23.9462 2.71911C21.5491 -0.477063 16.5732 -0.222823 11.561 2.97335Z" fill="#42175B"/>
<path d="M18.8616 2.79165C19.5517 3.48173 19.1522 5.0435 17.9173 6.27838C16.6824 7.47695 15.1206 7.91279 14.4306 7.22271C13.7042 6.53263 14.14 4.97086 15.3386 3.73597C16.6098 2.46477 18.1715 2.10156 18.8616 2.79165ZM14.5758 24.0389C11.7429 26.1818 8.80093 27.2351 5.93164 26.7993C7.13021 26.8719 8.11085 25.5281 8.90989 23.7484C9.70894 21.9324 10.2174 20.2253 10.5806 18.6272C11.1617 16.1211 11.1981 14.3051 10.9075 13.9056C10.4353 13.2519 9.30941 13.4335 8.07453 14.1599C7.49341 14.4867 6.69437 14.2688 7.63869 13.1429C8.58301 11.9806 12.3603 9.22031 13.7405 8.78447C15.2296 8.34863 16.9366 8.92975 16.3555 10.5642C15.9197 11.7627 10.6896 25.4917 14.5758 24.0389Z" fill="white"/>
</svg>
