<svg width="48" height="42" viewBox="0 0 48 42" fill="none" xmlns="http://www.w3.org/2000/svg">
<path fill-rule="evenodd" clip-rule="evenodd" d="M0.359375 30.1279H11.6385V33.5491H8.39553V41.7991H3.69144V33.5491H0.359375V30.1279Z" fill="#42175B"/>
<path fill-rule="evenodd" clip-rule="evenodd" d="M17.3408 34.8498L14.971 41.7991H10.4629L14.8819 30.1279H19.782L24.3257 41.7991H19.7463L17.3408 34.8498Z" fill="#42175B"/>
<path fill-rule="evenodd" clip-rule="evenodd" d="M23.2383 30.1279H34.5174V33.5491H31.2923V41.7991H26.5882V33.5491H23.2383V30.1279Z" fill="#42175B"/>
<path fill-rule="evenodd" clip-rule="evenodd" d="M40.2376 34.8498L37.8499 41.7991H33.3418L37.7786 30.1279H42.6787L47.2046 41.7991H42.6431L40.2376 34.8498Z" fill="#42175B"/>
<path fill-rule="evenodd" clip-rule="evenodd" d="M40.3973 8.67461C39.9697 7.85496 39.4173 7.05313 38.7402 6.30475C37.19 4.62981 34.9983 3.23996 32.4146 2.27776C29.8131 1.31556 26.8196 0.798828 23.8083 0.798828C20.7791 0.798828 17.8034 1.31556 15.2019 2.27776C12.6004 3.23996 10.4087 4.62981 8.85853 6.30475C8.16361 7.05313 7.61124 7.83714 7.18359 8.67461C10.5513 7.87278 16.3245 6.78585 21.67 6.67894C22.1868 6.66112 22.5432 6.83931 22.7748 7.1244C23.0599 7.48077 23.0421 8.78152 23.0243 9.35172L22.8639 24.248C23.1668 24.2658 23.4697 24.2658 23.7726 24.2658C24.0756 24.2658 24.3785 24.2658 24.6814 24.248L24.521 9.35172C24.521 8.78152 24.4854 7.48077 24.7705 7.1244C25.0021 6.82149 25.3585 6.66112 25.8752 6.67894C31.2742 6.78585 37.0296 7.85496 40.3973 8.67461Z" fill="#42175B"/>
<path fill-rule="evenodd" clip-rule="evenodd" d="M41.1101 10.6168C36.1922 9.49419 32.8957 9.29819 29.6349 9.12C26.8018 8.95964 26.7662 9.97529 27.0513 11.8997C27.0691 12.0244 27.0869 12.167 27.1225 12.3273C28.0669 17.958 29.2608 22.8046 29.4568 23.6243C36.3703 22.0384 41.3417 17.6729 41.3417 12.5233C41.3417 11.8819 41.2704 11.2404 41.1101 10.6168Z" fill="#42175B"/>
<path fill-rule="evenodd" clip-rule="evenodd" d="M20.5307 11.8997C20.8158 9.97529 20.7801 8.95964 17.947 9.12C14.6862 9.29819 11.4076 9.51201 6.47187 10.6168C6.32933 11.2404 6.24023 11.8819 6.24023 12.5412C6.24023 14.7685 7.14898 16.9067 8.85956 18.7598C10.4098 20.4348 12.6014 21.8246 15.1851 22.7868C16.1295 23.1432 17.1095 23.4105 18.1252 23.6421C18.3212 22.8759 19.5328 17.9223 20.495 12.2026C20.5129 12.0779 20.5307 11.9888 20.5307 11.8997Z" fill="#42175B"/>
</svg>
