<svg width="97" height="25" viewBox="0 0 97 25" fill="none" xmlns="http://www.w3.org/2000/svg">
<path d="M14.6928 6.18815V19.4082H10.0819V17.7691C9.14114 19.0661 7.78706 19.8073 5.85572 19.8073C2.76273 19.8073 0.966797 18.0042 0.966797 14.6974V6.18815H5.57778V13.7353C5.57778 15.4814 6.29758 16.1941 7.73717 16.1941C9.25516 16.1941 10.089 15.3531 10.089 13.5999V6.18815H14.6928ZM31.8397 12.7875C31.8397 14.3197 31.5618 15.5669 31.0914 16.6003C30.1222 18.5886 28.2692 19.7788 25.7321 19.7788C23.9362 19.7788 22.5536 19.1944 21.5844 17.9472V24.7532H16.9734V6.18815H21.4846V7.77741C22.4823 6.42334 23.8863 5.78906 25.7393 5.78906C28.2835 5.78906 30.1293 6.98635 31.0985 8.99608C31.5618 10.0295 31.8397 11.2766 31.8397 12.7875ZM26.9294 12.7875C26.9294 11.861 26.8154 11.1982 26.5945 10.7207C26.1811 9.84416 25.3544 9.39517 24.2213 9.39517C22.4823 9.39517 21.5416 10.4499 21.5416 12.4098V13.1224C21.5416 15.0823 22.4823 16.137 24.2213 16.137C25.3544 16.137 26.1811 15.6881 26.5945 14.8115C26.8154 14.3482 26.9294 13.7068 26.9294 12.7875ZM55.0657 6.18815H59.6553V7.37832C60.3751 6.26655 61.1448 5.81756 62.2565 5.81756C63.9099 5.81756 64.9647 6.85094 64.9647 8.38318C64.9647 9.86554 63.8885 10.9559 62.3135 10.9559C61.3443 10.9559 60.5176 10.4713 60.1541 9.75864C59.7693 9.91543 59.6838 10.1292 59.6838 11.0557V19.394H55.0728L55.0657 6.18815ZM79.5602 11.804V19.4082H74.9492V17.8475C74.037 19.0661 72.6259 19.7788 70.3881 19.7788C68.2073 19.7788 66.5753 19.0376 65.8912 17.5553C65.6132 17.0279 65.5063 16.415 65.5063 15.6738C65.5063 14.9611 65.6132 14.3767 65.8341 13.8708C66.8319 11.804 69.5044 11.3265 72.8753 11.3265H74.9492V11.1127C74.9492 10.3216 74.8993 10.0295 74.7283 9.68024C74.4575 9.10298 73.8161 8.80366 72.8254 8.80366C71.7493 8.80366 71.1435 9.07447 70.8656 9.65174C70.7587 9.91543 70.7302 10.1007 70.7017 10.4499H66.0052C66.0337 9.73013 66.1762 9.12436 66.4185 8.59698C67.3307 6.65852 69.6826 5.78906 72.7756 5.78906C76.1109 5.78906 78.0778 6.63001 78.9901 8.53997C79.3678 9.42368 79.5602 10.5069 79.5602 11.804ZM74.6998 15.4315C74.8922 15.0609 74.9492 14.6903 74.9492 13.9777V13.7924H73.1818C71.8562 13.7924 70.7801 13.9278 70.4808 14.6191C70.3952 14.7758 70.3453 14.9611 70.3453 15.1963C70.3453 15.4315 70.3739 15.6239 70.4808 15.8306C70.7587 16.415 71.4785 16.6217 72.3123 16.6217C73.5381 16.6217 74.3363 16.2012 74.6998 15.4315ZM96.3151 0.714839V19.4082H91.8181V17.819C90.8204 19.1445 89.4378 19.7788 87.5635 19.7788C85.0192 19.7788 83.1734 18.61 82.2042 16.6003C81.7338 15.5669 81.4559 14.3197 81.4559 12.7875C81.4559 11.2838 81.7338 10.0366 82.2042 9.00321C83.1378 6.99347 85.0192 5.79619 87.5635 5.79619C89.3594 5.79619 90.7135 6.38058 91.7041 7.62062V0.714839H96.3151ZM91.754 12.4169C91.754 10.4571 90.8133 9.4023 89.0743 9.4023C87.9412 9.4023 87.1145 9.85129 86.7011 10.7279C86.4802 11.2054 86.3662 11.8681 86.3662 12.7946C86.3662 13.7496 86.4802 14.3839 86.7011 14.8899C87.1145 15.7593 87.9412 16.2154 89.0743 16.2154C90.8133 16.2154 91.754 15.1536 91.754 13.2008V12.4169ZM44.6464 9.45932V12.8659H47.6254L47.5185 13.3149C47.1479 14.7972 45.3021 15.7878 43.8055 15.7878C41.7316 15.7878 39.0448 14.8329 39.0448 10.2646C39.0448 6.48035 40.7695 4.67729 43.4206 4.67729C44.8673 4.67729 45.9791 5.00512 46.649 5.96723C46.927 6.39483 47.1835 6.97209 47.2192 7.45671H52.5001C52.5001 7.45671 52.6283 5.10489 50.6329 3.06665C50.5972 3.03102 50.5687 3.00251 50.5402 2.97401C48.9296 1.30636 46.5136 0.379883 43.5275 0.379883C37.4271 0.379883 33.486 4.27107 33.486 10.2931C33.486 17.2559 38.4747 19.7289 42.7507 19.7289C45.1524 19.7289 47.3047 19.0376 48.6231 17.6907L48.6873 19.4082H52.8208V9.45932H44.6464Z" fill="#42175B"/>
</svg>
